{"title":"ssic World(2015)MP-4[DaScubaDude]","uid":13085983,"size":1234945145,"categoryP":"video","categoryS":"movies","magnet":"?xt=urn:btih:b84d818088a44af22565df4725bd4954509842f8&amp;dn=ssic+World%282015%29MP-4%5BDaScubaDude%5D&amp;tr=udp%3A%2F%2Ftracker.leechers-paradise.org%3A6969&amp;tr=udp%3A%2F%2Fzer0day.ch%3A1337&amp;tr=udp%3A%2F%2Fopen.demonii.com%3A1337&amp;tr=udp%3A%2F%2Ftracker.coppersurfer.tk%3A6969&amp;tr=udp%3A%2F%2Fexodus.desync.com%3A6969","seeders":0,"leechers":0,"uploader":"dascuba","files":1,"time":1450973573,"description":"Jurassic World (2015)\r\nPG-13  |  124 min  |  Action, Adventure, Sci-Fi  |  12 June 2015 (USA)\r\n7.1 Your rating:   -/10   Ratings: 7.1/10 from 339,385 users   Metascore: 59/100\r\nReviews: 1,188 user | 619 critic | 49 from Metacritic.com\r\nA new theme park is built on the original site of Jurassic Park. Everything is going well until the park's newest attraction--a genetically modified giant stealth killing machine--escapes containment and goes on a killing spree.\r\n\r\nDirector: Colin Trevorrow\r\nWriters: Rick Jaffa (screenplay), Amanda Silver (screenplay), 5 more credits »\r\nStars: Chris Pratt, Bryce Dallas Howard, Ty Simpkins\r\n\r\nGeneral\r\nComplete name                            :Jurassic WorldJURASSIC_WORLD_Title10.mp4\r\nFormat                                   : MPEG-4\r\nFormat profile                           : Base Media\r\nCodec ID                                 : isom\r\nFile size                                : 1.15 GiB\r\nDuration                                 : 2h 4mn\r\nOverall bit rate                         : 1 324 Kbps\r\nMovie name                               : JURASSIC_WORLD_Title10\r\nWriting application                      : Lavf54.6.100\r\n\r\nVideo\r\nID                                       : 1\r\nFormat                                   : AVC\r\nFormat/Info                              : Advanced Video Codec\r\nFormat profile                           :   \r\nFormat settings, CABAC                   : No\r\nFormat settings, ReFrames                : 6 frames\r\nCodec ID                                 : avc1\r\nCodec ID/Info                            : Advanced Video Coding\r\nDuration                                 : 2h 4mn\r\nBit rate                                 : 1 189 Kbps\r\nWidth                                    : 720 pixels\r\nHeight                                   : 404 pixels\r\nDisplay aspect ratio                     : 16:9\r\nFrame rate mode                          : Constant\r\nFrame rate                               : 29.970 fps\r\nColor space                              : YUV\r\nChroma subsampling                       : 4:2:0\r\nBit depth                                : 8 bits\r\nScan type                                : Progressive\r\nBits/(Pixel*Frame)                       : 0.136\r\nStream size                              : 1.03 GiB (90%)\r\n\r\nAudio\r\nID                                       : 2\r\nFormat                                   : AAC\r\nFormat/Info                              : Advanced Audio Codec\r\nFormat profile                           : LC\r\nCodec ID                                 : 40\r\nDuration                                 : 2h 4mn\r\nBit rate mode                            : Constant\r\nBit rate                                 : 128 Kbps\r\nChannel(s)                               : 2 channels\r\nChannel positions                        : Front: L R\r\nSampling rate                            : 44.1 KHz\r\nCompression mode                         : Lossy\r\nStream size                              : 114 MiB (10%)","torrent":{"xt":"urn:btih:b84d818088a44af22565df4725bd4954509842f8","amp;dn":"ssic+World%282015%29MP-4%5BDaScubaDude%5D","amp;tr":["udp%3A%2F%2Ftracker.leechers-paradise.org%3A6969","udp%3A%2F%2Fzer0day.ch%3A1337","udp%3A%2F%2Fopen.demonii.com%3A1337","udp%3A%2F%2Ftracker.coppersurfer.tk%3A6969","udp%3A%2F%2Fexodus.desync.com%3A6969"],"infoHash":"b84d818088a44af22565df4725bd4954509842f8","infoHashBuffer":{"type":"Buffer","data":[184,77,129,128,136,164,74,242,37,101,223,71,37,189,73,84,80,152,66,248]},"announce":[],"urlList":[]}}